<svg width="44" height="53" viewBox="0 0 44 53" fill="none" xmlns="http://www.w3.org/2000/svg">
<path d="M21.5 0C9.61842 0 0 8.44424 0 18.8754C0 32.4855 18.7842 50.8641 20.4816 52.553C21.0474 53.149 21.9526 53.149 22.5184 52.553C24.2158 50.8641 43 32.4855 43 18.8754C43 8.44424 33.3816 0 21.5 0ZM21.5 45.0028C16.5211 39.6382 6.78947 28.1143 6.78947 18.8754C6.78947 11.7226 13.3526 5.96064 21.5 5.96064C29.6474 5.96064 36.2105 11.7226 36.2105 18.8754C36.2105 28.1143 26.4789 39.6382 21.5 45.0028Z" fill="#145AF9"/>
<path d="M21.4999 27.8163C27.1245 27.8163 31.6841 23.8133 31.6841 18.8754C31.6841 13.9374 27.1245 9.9344 21.4999 9.9344C15.8753 9.9344 11.3157 13.9374 11.3157 18.8754C11.3157 23.8133 15.8753 27.8163 21.4999 27.8163Z" fill="#145AF9"/>
<path d="M21.4999 24.0412C24.7497 24.0412 27.3841 21.7284 27.3841 18.8753C27.3841 16.0223 24.7497 13.7095 21.4999 13.7095C18.2502 13.7095 15.6157 16.0223 15.6157 18.8753C15.6157 21.7284 18.2502 24.0412 21.4999 24.0412Z" fill="#64FFDA"/>
</svg>
