<svg width="224" height="53" viewBox="0 0 224 53" fill="none" xmlns="http://www.w3.org/2000/svg">
<path d="M21.7143 0C9.71429 0 0 8.44424 0 18.8754C0 32.4855 18.9714 50.8641 20.6857 52.553C21.2571 53.149 22.1714 53.149 22.7429 52.553C24.4571 50.8641 43.4286 32.4855 43.4286 18.8754C43.4286 8.44424 33.7143 0 21.7143 0ZM21.7143 45.0028C16.6857 39.6382 6.85714 28.1143 6.85714 18.8754C6.85714 11.7226 13.4857 5.96064 21.7143 5.96064C29.9429 5.96064 36.5714 11.7226 36.5714 18.8754C36.5714 28.1143 26.7429 39.6382 21.7143 45.0028Z" fill="#145AF9"/>
<path d="M21.7142 27.8163C27.3948 27.8163 31.9999 23.8133 31.9999 18.8753C31.9999 13.9374 27.3948 9.93439 21.7142 9.93439C16.0335 9.93439 11.4285 13.9374 11.4285 18.8753C11.4285 23.8133 16.0335 27.8163 21.7142 27.8163Z" fill="#145AF9"/>
<path d="M21.7143 24.0412C24.9965 24.0412 27.6572 21.7284 27.6572 18.8753C27.6572 16.0223 24.9965 13.7095 21.7143 13.7095C18.4322 13.7095 15.7715 16.0223 15.7715 18.8753C15.7715 21.7284 18.4322 24.0412 21.7143 24.0412Z" fill="#64FFDA"/>
<path d="M70.0464 21.292C69.4491 20.8067 68.8518 20.452 68.2544 20.228C67.6571 19.9853 67.0784 19.864 66.5184 19.864C65.8091 19.864 65.2304 20.032 64.7824 20.368C64.3344 20.704 64.1104 21.1427 64.1104 21.684C64.1104 22.0573 64.2224 22.3653 64.4464 22.608C64.6704 22.8507 64.9598 23.0653 65.3144 23.252C65.6878 23.42 66.0984 23.5693 66.5464 23.7C67.0131 23.8307 67.4704 23.9707 67.9184 24.12C69.7104 24.7173 71.0171 25.52 71.8384 26.528C72.6784 27.5173 73.0984 28.8147 73.0984 30.42C73.0984 31.5027 72.9118 32.4827 72.5384 33.36C72.1838 34.2373 71.6518 34.9933 70.9424 35.628C70.2518 36.244 69.3931 36.72 68.3664 37.056C67.3584 37.4107 66.2104 37.588 64.9224 37.588C62.2531 37.588 59.7798 36.7947 57.5024 35.208L59.8544 30.784C60.6758 31.512 61.4878 32.0533 62.2904 32.408C63.0931 32.7627 63.8864 32.94 64.6704 32.94C65.5664 32.94 66.2291 32.7347 66.6584 32.324C67.1064 31.9133 67.3304 31.4467 67.3304 30.924C67.3304 30.6067 67.2744 30.336 67.1624 30.112C67.0504 29.8693 66.8638 29.6547 66.6024 29.468C66.3411 29.2627 65.9958 29.076 65.5664 28.908C65.1558 28.74 64.6518 28.5533 64.0544 28.348C63.3451 28.124 62.6451 27.8813 61.9544 27.62C61.2824 27.34 60.6758 26.976 60.1344 26.528C59.6118 26.08 59.1824 25.52 58.8464 24.848C58.5291 24.1573 58.3704 23.2893 58.3704 22.244C58.3704 21.1987 58.5384 20.256 58.8744 19.416C59.2291 18.5573 59.7144 17.8293 60.3304 17.232C60.9651 16.616 61.7304 16.14 62.6264 15.804C63.5411 15.468 64.5584 15.3 65.6784 15.3C66.7238 15.3 67.8158 15.4493 68.9544 15.748C70.0931 16.028 71.1851 16.448 72.2304 17.008L70.0464 21.292ZM87.532 29.86C87.532 29.412 87.448 28.992 87.28 28.6C87.1307 28.1893 86.9067 27.8347 86.608 27.536C86.3093 27.2373 85.9547 27.004 85.544 26.836C85.152 26.6493 84.7227 26.556 84.256 26.556C83.808 26.556 83.388 26.64 82.996 26.808C82.604 26.976 82.2587 27.2093 81.96 27.508C81.68 27.8067 81.4467 28.1613 81.26 28.572C81.092 28.964 81.008 29.384 81.008 29.832C81.008 30.28 81.092 30.7 81.26 31.092C81.428 31.484 81.6613 31.8293 81.96 32.128C82.2587 32.408 82.604 32.6413 82.996 32.828C83.4067 32.996 83.836 33.08 84.284 33.08C84.732 33.08 85.152 32.996 85.544 32.828C85.936 32.66 86.272 32.4267 86.552 32.128C86.8507 31.8293 87.084 31.484 87.252 31.092C87.4387 30.7 87.532 30.2893 87.532 29.86ZM81.148 44.168H76.08V22.636H81.148V24.232C82.2307 22.8693 83.7053 22.188 85.572 22.188C86.5987 22.188 87.5507 22.3933 88.428 22.804C89.324 23.196 90.0987 23.7373 90.752 24.428C91.4053 25.1187 91.9093 25.9307 92.264 26.864C92.6373 27.7973 92.824 28.796 92.824 29.86C92.824 30.924 92.6373 31.9133 92.264 32.828C91.9093 33.7427 91.4053 34.5453 90.752 35.236C90.1173 35.9267 89.3613 36.468 88.484 36.86C87.6067 37.252 86.6547 37.448 85.628 37.448C83.836 37.448 82.3427 36.832 81.148 35.6V44.168ZM100.501 29.748C100.501 30.2333 100.585 30.6813 100.753 31.092C100.939 31.484 101.173 31.8293 101.453 32.128C101.751 32.4267 102.097 32.66 102.489 32.828C102.899 32.996 103.329 33.08 103.777 33.08C104.225 33.08 104.645 32.996 105.037 32.828C105.447 32.66 105.793 32.4267 106.073 32.128C106.371 31.8293 106.605 31.484 106.773 31.092C106.959 30.6813 107.053 30.2427 107.053 29.776C107.053 29.328 106.959 28.908 106.773 28.516C106.605 28.1053 106.371 27.7507 106.073 27.452C105.793 27.1533 105.447 26.92 105.037 26.752C104.645 26.584 104.225 26.5 103.777 26.5C103.329 26.5 102.899 26.584 102.489 26.752C102.097 26.92 101.751 27.1533 101.453 27.452C101.173 27.7507 100.939 28.096 100.753 28.488C100.585 28.88 100.501 29.3 100.501 29.748ZM95.1528 29.692C95.1528 28.628 95.3675 27.6387 95.7968 26.724C96.2261 25.7907 96.8235 24.988 97.5888 24.316C98.3541 23.6253 99.2595 23.084 100.305 22.692C101.369 22.3 102.526 22.104 103.777 22.104C105.009 22.104 106.147 22.3 107.193 22.692C108.257 23.0653 109.171 23.5973 109.937 24.288C110.721 24.96 111.327 25.772 111.757 26.724C112.186 27.6573 112.401 28.6933 112.401 29.832C112.401 30.9707 112.177 32.016 111.729 32.968C111.299 33.9013 110.702 34.7133 109.937 35.404C109.171 36.076 108.247 36.5987 107.165 36.972C106.101 37.3453 104.943 37.532 103.693 37.532C102.461 37.532 101.322 37.3453 100.277 36.972C99.2315 36.5987 98.3261 36.0667 97.5608 35.376C96.8141 34.6853 96.2261 33.864 95.7968 32.912C95.3675 31.9413 95.1528 30.868 95.1528 29.692ZM115.318 22.636H120.386V24.988C120.928 24.1293 121.59 23.476 122.374 23.028C123.158 22.5613 124.073 22.328 125.118 22.328C125.249 22.328 125.389 22.328 125.538 22.328C125.706 22.328 125.893 22.3467 126.098 22.384V27.228C125.426 26.892 124.698 26.724 123.914 26.724C122.738 26.724 121.852 27.0787 121.254 27.788C120.676 28.4787 120.386 29.496 120.386 30.84V37H115.318V22.636ZM134.537 26.864V37H129.469V26.864H127.789V22.636H129.469V18.324H134.537V22.636H137.421V26.864H134.537ZM138.85 37L142.434 15.888H147.866L152.094 27.144L156.294 15.888H161.726L165.31 37H159.85L158.03 24.848L153.046 37H150.862L146.13 24.848L144.31 37H138.85ZM178.045 27.732C177.877 27.0227 177.532 26.4533 177.009 26.024C176.486 25.5947 175.852 25.38 175.105 25.38C174.321 25.38 173.677 25.5853 173.173 25.996C172.688 26.4067 172.38 26.9853 172.249 27.732H178.045ZM172.109 30.672C172.109 32.856 173.136 33.948 175.189 33.948C176.29 33.948 177.121 33.5 177.681 32.604H182.581C181.592 35.8893 179.118 37.532 175.161 37.532C173.948 37.532 172.837 37.3547 171.829 37C170.821 36.6267 169.953 36.104 169.225 35.432C168.516 34.76 167.965 33.9573 167.573 33.024C167.181 32.0907 166.985 31.0453 166.985 29.888C166.985 28.6933 167.172 27.62 167.545 26.668C167.918 25.6973 168.45 24.876 169.141 24.204C169.832 23.532 170.662 23.0187 171.633 22.664C172.622 22.2907 173.733 22.104 174.965 22.104C176.178 22.104 177.27 22.2907 178.241 22.664C179.212 23.0187 180.033 23.5413 180.705 24.232C181.377 24.9227 181.89 25.772 182.245 26.78C182.6 27.7693 182.777 28.8893 182.777 30.14V30.672H172.109ZM196.174 27.732C196.006 27.0227 195.66 26.4533 195.138 26.024C194.615 25.5947 193.98 25.38 193.234 25.38C192.45 25.38 191.806 25.5853 191.302 25.996C190.816 26.4067 190.508 26.9853 190.378 27.732H196.174ZM190.238 30.672C190.238 32.856 191.264 33.948 193.318 33.948C194.419 33.948 195.25 33.5 195.81 32.604H200.71C199.72 35.8893 197.247 37.532 193.29 37.532C192.076 37.532 190.966 37.3547 189.958 37C188.95 36.6267 188.082 36.104 187.354 35.432C186.644 34.76 186.094 33.9573 185.702 33.024C185.31 32.0907 185.114 31.0453 185.114 29.888C185.114 28.6933 185.3 27.62 185.674 26.668C186.047 25.6973 186.579 24.876 187.27 24.204C187.96 23.532 188.791 23.0187 189.762 22.664C190.751 22.2907 191.862 22.104 193.094 22.104C194.307 22.104 195.399 22.2907 196.37 22.664C197.34 23.0187 198.162 23.5413 198.834 24.232C199.506 24.9227 200.019 25.772 200.374 26.78C200.728 27.7693 200.906 28.8893 200.906 30.14V30.672H190.238ZM209.65 26.864V37H204.582V26.864H202.902V22.636H204.582V18.324H209.65V22.636H212.534V26.864H209.65Z" fill="#145AF9"/>
</svg>
