<svg width="38" height="54" viewBox="0 0 38 54" fill="none" xmlns="http://www.w3.org/2000/svg">
<path d="M19 0C8.5 0 0 8.5 0 19C0 32.7 16.6 51.2 18.1 52.9C18.6 53.5 19.4 53.5 19.9 52.9C21.4 51.2 38 32.7 38 19C38 8.5 29.5 0 19 0ZM19 45.3C14.6 39.9 6 28.3 6 19C6 11.8 11.8 6 19 6C26.2 6 32 11.8 32 19C32 28.3 23.4 39.9 19 45.3Z" fill="#006BFF"/>
<path d="M19 28C23.9706 28 28 23.9706 28 19C28 14.0294 23.9706 10 19 10C14.0294 10 10 14.0294 10 19C10 23.9706 14.0294 28 19 28Z" fill="#0DA9D9"/>
<path d="M19 24.2C21.8719 24.2 24.2001 21.8719 24.2001 19C24.2001 16.1281 21.8719 13.8 19 13.8C16.1282 13.8 13.8 16.1281 13.8 19C13.8 21.8719 16.1282 24.2 19 24.2Z" fill="#1AEEBE"/>
</svg>
