<svg width="156" height="29" viewBox="0 0 156 29" fill="none" xmlns="http://www.w3.org/2000/svg">
<path d="M12.544 5.992C11.9467 5.50666 11.3493 5.152 10.752 4.928C10.1547 4.68533 9.57599 4.564 9.01599 4.564C8.30666 4.564 7.72799 4.732 7.27999 5.068C6.83199 5.404 6.60799 5.84266 6.60799 6.384C6.60799 6.75733 6.71999 7.06533 6.94399 7.308C7.16799 7.55066 7.45732 7.76533 7.81199 7.952C8.18532 8.12 8.59599 8.26933 9.04399 8.4C9.51066 8.53066 9.96799 8.67066 10.416 8.82C12.208 9.41733 13.5147 10.22 14.336 11.228C15.176 12.2173 15.596 13.5147 15.596 15.12C15.596 16.2027 15.4093 17.1827 15.036 18.06C14.6813 18.9373 14.1493 19.6933 13.44 20.328C12.7493 20.944 11.8907 21.42 10.864 21.756C9.85599 22.1107 8.70799 22.288 7.41999 22.288C4.75066 22.288 2.27732 21.4947 -9.71556e-06 19.908L2.35199 15.484C3.17332 16.212 3.98532 16.7533 4.78799 17.108C5.59066 17.4627 6.38399 17.64 7.16799 17.64C8.06399 17.64 8.72666 17.4347 9.15599 17.024C9.60399 16.6133 9.82799 16.1467 9.82799 15.624C9.82799 15.3067 9.77199 15.036 9.65999 14.812C9.54799 14.5693 9.36132 14.3547 9.09999 14.168C8.83866 13.9627 8.49332 13.776 8.06399 13.608C7.65332 13.44 7.14932 13.2533 6.55199 13.048C5.84266 12.824 5.14266 12.5813 4.45199 12.32C3.77999 12.04 3.17332 11.676 2.63199 11.228C2.10932 10.78 1.67999 10.22 1.34399 9.548C1.02666 8.85733 0.86799 7.98933 0.86799 6.944C0.86799 5.89866 1.03599 4.956 1.37199 4.116C1.72666 3.25733 2.21199 2.52933 2.82799 1.932C3.46266 1.316 4.22799 0.839996 5.12399 0.503996C6.03866 0.167996 7.05599 -4.05312e-06 8.17599 -4.05312e-06C9.22132 -4.05312e-06 10.3133 0.149329 11.452 0.447995C12.5907 0.727996 13.6827 1.148 14.728 1.708L12.544 5.992ZM30.0296 14.56C30.0296 14.112 29.9456 13.692 29.7776 13.3C29.6282 12.8893 29.4042 12.5347 29.1056 12.236C28.8069 11.9373 28.4522 11.704 28.0416 11.536C27.6496 11.3493 27.2202 11.256 26.7536 11.256C26.3056 11.256 25.8856 11.34 25.4936 11.508C25.1016 11.676 24.7562 11.9093 24.4576 12.208C24.1776 12.5067 23.9442 12.8613 23.7576 13.272C23.5896 13.664 23.5056 14.084 23.5056 14.532C23.5056 14.98 23.5896 15.4 23.7576 15.792C23.9256 16.184 24.1589 16.5293 24.4576 16.828C24.7562 17.108 25.1016 17.3413 25.4936 17.528C25.9042 17.696 26.3336 17.78 26.7816 17.78C27.2296 17.78 27.6496 17.696 28.0416 17.528C28.4336 17.36 28.7696 17.1267 29.0496 16.828C29.3482 16.5293 29.5816 16.184 29.7496 15.792C29.9362 15.4 30.0296 14.9893 30.0296 14.56ZM23.6456 28.868H18.5776V7.336H23.6456V8.932C24.7282 7.56933 26.2029 6.888 28.0696 6.888C29.0962 6.888 30.0482 7.09333 30.9256 7.504C31.8216 7.896 32.5962 8.43733 33.2496 9.128C33.9029 9.81866 34.4069 10.6307 34.7616 11.564C35.1349 12.4973 35.3216 13.496 35.3216 14.56C35.3216 15.624 35.1349 16.6133 34.7616 17.528C34.4069 18.4427 33.9029 19.2453 33.2496 19.936C32.6149 20.6267 31.8589 21.168 30.9816 21.56C30.1042 21.952 29.1522 22.148 28.1256 22.148C26.3336 22.148 24.8402 21.532 23.6456 20.3V28.868ZM42.9984 14.448C42.9984 14.9333 43.0824 15.3813 43.2504 15.792C43.437 16.184 43.6704 16.5293 43.9504 16.828C44.249 17.1267 44.5944 17.36 44.9864 17.528C45.397 17.696 45.8264 17.78 46.2744 17.78C46.7224 17.78 47.1424 17.696 47.5344 17.528C47.945 17.36 48.2904 17.1267 48.5704 16.828C48.869 16.5293 49.1024 16.184 49.2704 15.792C49.457 15.3813 49.5504 14.9427 49.5504 14.476C49.5504 14.028 49.457 13.608 49.2704 13.216C49.1024 12.8053 48.869 12.4507 48.5704 12.152C48.2904 11.8533 47.945 11.62 47.5344 11.452C47.1424 11.284 46.7224 11.2 46.2744 11.2C45.8264 11.2 45.397 11.284 44.9864 11.452C44.5944 11.62 44.249 11.8533 43.9504 12.152C43.6704 12.4507 43.437 12.796 43.2504 13.188C43.0824 13.58 42.9984 14 42.9984 14.448ZM37.6504 14.392C37.6504 13.328 37.865 12.3387 38.2944 11.424C38.7237 10.4907 39.321 9.688 40.0864 9.016C40.8517 8.32533 41.757 7.784 42.8024 7.392C43.8664 7 45.0237 6.804 46.2744 6.804C47.5064 6.804 48.645 7 49.6904 7.392C50.7544 7.76533 51.669 8.29733 52.4344 8.988C53.2184 9.66 53.825 10.472 54.2544 11.424C54.6837 12.3573 54.8984 13.3933 54.8984 14.532C54.8984 15.6707 54.6744 16.716 54.2264 17.668C53.797 18.6013 53.1997 19.4133 52.4344 20.104C51.669 20.776 50.745 21.2987 49.6624 21.672C48.5984 22.0453 47.441 22.232 46.1904 22.232C44.9584 22.232 43.8197 22.0453 42.7744 21.672C41.729 21.2987 40.8237 20.7667 40.0584 20.076C39.3117 19.3853 38.7237 18.564 38.2944 17.612C37.865 16.6413 37.6504 15.568 37.6504 14.392ZM57.8158 7.336H62.8838V9.688C63.4252 8.82933 64.0878 8.176 64.8718 7.728C65.6558 7.26133 66.5705 7.028 67.6158 7.028C67.7465 7.028 67.8865 7.028 68.0358 7.028C68.2038 7.028 68.3905 7.04666 68.5958 7.084V11.928C67.9238 11.592 67.1958 11.424 66.4118 11.424C65.2358 11.424 64.3492 11.7787 63.7518 12.488C63.1732 13.1787 62.8838 14.196 62.8838 15.54V21.7H57.8158V7.336ZM77.0343 11.564V21.7H71.9663V11.564H70.2863V7.336H71.9663V3.024H77.0343V7.336H79.9183V11.564H77.0343ZM81.3476 21.7L84.9316 0.587997H90.3636L94.5916 11.844L98.7916 0.587997H104.224L107.808 21.7H102.348L100.528 9.548L95.5436 21.7H93.3596L88.6276 9.548L86.8076 21.7H81.3476ZM120.542 12.432C120.374 11.7227 120.029 11.1533 119.506 10.724C118.984 10.2947 118.349 10.08 117.602 10.08C116.818 10.08 116.174 10.2853 115.67 10.696C115.185 11.1067 114.877 11.6853 114.746 12.432H120.542ZM114.606 15.372C114.606 17.556 115.633 18.648 117.686 18.648C118.788 18.648 119.618 18.2 120.178 17.304H125.078C124.089 20.5893 121.616 22.232 117.658 22.232C116.445 22.232 115.334 22.0547 114.326 21.7C113.318 21.3267 112.45 20.804 111.722 20.132C111.013 19.46 110.462 18.6573 110.07 17.724C109.678 16.7907 109.482 15.7453 109.482 14.588C109.482 13.3933 109.669 12.32 110.042 11.368C110.416 10.3973 110.948 9.576 111.638 8.904C112.329 8.232 113.16 7.71866 114.13 7.364C115.12 6.99066 116.23 6.804 117.462 6.804C118.676 6.804 119.768 6.99066 120.738 7.364C121.709 7.71866 122.53 8.24133 123.202 8.932C123.874 9.62266 124.388 10.472 124.742 11.48C125.097 12.4693 125.274 13.5893 125.274 14.84V15.372H114.606ZM138.671 12.432C138.503 11.7227 138.158 11.1533 137.635 10.724C137.113 10.2947 136.478 10.08 135.731 10.08C134.947 10.08 134.303 10.2853 133.799 10.696C133.314 11.1067 133.006 11.6853 132.875 12.432H138.671ZM132.735 15.372C132.735 17.556 133.762 18.648 135.815 18.648C136.917 18.648 137.747 18.2 138.307 17.304H143.207C142.218 20.5893 139.745 22.232 135.787 22.232C134.574 22.232 133.463 22.0547 132.455 21.7C131.447 21.3267 130.579 20.804 129.851 20.132C129.142 19.46 128.591 18.6573 128.199 17.724C127.807 16.7907 127.611 15.7453 127.611 14.588C127.611 13.3933 127.798 12.32 128.171 11.368C128.545 10.3973 129.077 9.576 129.767 8.904C130.458 8.232 131.289 7.71866 132.259 7.364C133.249 6.99066 134.359 6.804 135.591 6.804C136.805 6.804 137.897 6.99066 138.867 7.364C139.838 7.71866 140.659 8.24133 141.331 8.932C142.003 9.62266 142.517 10.472 142.871 11.48C143.226 12.4693 143.403 13.5893 143.403 14.84V15.372H132.735ZM152.148 11.564V21.7H147.08V11.564H145.4V7.336H147.08V3.024H152.148V7.336H155.032V11.564H152.148Z" fill="#006BFF"/>
</svg>
