<svg>
  <symbol xmlns="http://www.w3.org/2000/svg" fill="none" stroke="currentColor" stroke-width="2" stroke-linecap="round" stroke-linejoin="round" viewBox="0 0 24 24" id="email">
    <path d="m22 7-8.991 5.727a2 2 0 0 1-2.009 0L2 7"></path>
    <rect x="2" y="4" width="20" height="16" rx="2"></rect>
  </symbol>
  <symbol xmlns="http://www.w3.org/2000/svg" fill="none" stroke="currentColor" stroke-width="2" stroke-linecap="round" stroke-linejoin="round" viewBox="0 0 24 24" id="lock">
    <rect width="18" height="11" x="3" y="11" rx="2" ry="2"></rect>
    <path d="M7 11V7a5 5 0 0 1 10 0v4"></path>
  </symbol>
 
  <symbol xmlns="http://www.w3.org/2000/svg" viewBox="0 0 24 24" fill="none" stroke="currentColor" stroke-width="2" stroke-linecap="round" stroke-linejoin="round" id="user"><path d="M19 21v-2a4 4 0 0 0-4-4H9a4 4 0 0 0-4 4v2"/><circle cx="12" cy="7" r="4"/></symbol>


  <symbol xmlns="http://www.w3.org/2000/svg" viewBox="0 0 24 24" fill="none" stroke="currentColor" stroke-width="2" stroke-linecap="round" stroke-linejoin="round" id="eye"><path d="M2.062 12.348a1 1 0 0 1 0-.696 10.75 10.75 0 0 1 19.876 0 1 1 0 0 1 0 .696 10.75 10.75 0 0 1-19.876 0"/><circle cx="12" cy="12" r="3"/></symbol>

  <symbol xmlns="http://www.w3.org/2000/svg" viewBox="0 0 24 24" fill="none" stroke="currentColor" stroke-width="2" stroke-linecap="round" stroke-linejoin="round" id="eye-off"><path d="M10.733 5.076a10.744 10.744 0 0 1 11.205 6.575 1 1 0 0 1 0 .696 10.747 10.747 0 0 1-1.444 2.49"/><path d="M14.084 14.158a3 3 0 0 1-4.242-4.242"/><path d="M17.479 17.499a10.75 10.75 0 0 1-15.417-5.151 1 1 0 0 1 0-.696 10.75 10.75 0 0 1 4.446-5.143"/><path d="m2 2 20 20"/></symbol>

  <symbol xmlns="http://www.w3.org/2000/svg" viewBox="0 0 24 24" fill="none" stroke="currentColor" stroke-width="2" stroke-linecap="round" stroke-linejoin="round" id="calendar"><path d="M8 2v4"/><path d="M16 2v4"/><rect width="18" height="18" x="3" y="4" rx="2"/><path d="M3 10h18"/></symbol>

  <symbol xmlns="http://www.w3.org/2000/svg" viewBox="0 0 24 24" fill="none" stroke="currentColor" stroke-width="2" stroke-linecap="round" stroke-linejoin="round" id="group"><path d="M16 21v-2a4 4 0 0 0-4-4H6a4 4 0 0 0-4 4v2"/><path d="M16 3.128a4 4 0 0 1 0 7.744"/><path d="M22 21v-2a4 4 0 0 0-3-3.87"/><circle cx="9" cy="7" r="4"/></symbol>  
  <symbol xmlns="http://www.w3.org/2000/svg" width="24" height="24" viewBox="0 0 24 24" fill="none" stroke="currentColor" stroke-width="2" stroke-linecap="round" stroke-linejoin="round" id="notification"><path d="M10.268 21a2 2 0 0 0 3.464 0"/><path d="M3.262 15.326A1 1 0 0 0 4 17h16a1 1 0 0 0 .74-1.673C19.41 13.956 18 12.499 18 8A6 6 0 0 0 6 8c0 4.499-1.411 5.956-2.738 7.326"/></symbol>


  <symbol xmlns="http://www.w3.org/2000/svg" fill="none" stroke="currentColor" stroke-width="2" stroke-linecap="round" stroke-linejoin="round" id="plus" viewBox="0 0 24 24">
    <path d="M5 12h14"></path>
    <path d="M12 5v14"></path>
  </symbol>

  <symbol xmlns="http://www.w3.org/2000/svg" viewBox="0 0 24 24" fill="none" stroke="currentColor" stroke-width="2" stroke-linecap="round" stroke-linejoin="round" id="link">
    <path d="M9 17H7A5 5 0 0 1 7 7h2"/><path d="M15 7h2a5 5 0 1 1 0 10h-2"/>
    <line x1="8" x2="16" y1="12" y2="12"/>
  </symbol>

  <symbol xmlns="http://www.w3.org/2000/svg" viewBox="0 0 24 24" fill="none" stroke="currentColor" stroke-width="2" stroke-linecap="round" stroke-linejoin="round" id="logout">
    <path d="m16 17 5-5-5-5"/><path d="M21 12H9"/>
    <path d="M9 21H5a2 2 0 0 1-2-2V5a2 2 0 0 1 2-2h4"/>
  </symbol>

  <symbol xmlns="http://www.w3.org/2000/svg" viewBox="0 0 24 24" fill="none" stroke="currentColor" stroke-width="2" stroke-linecap="round" stroke-linejoin="round" id="delete-account">
    <path d="M16 21v-2a4 4 0 0 0-4-4H6a4 4 0 0 0-4 4v2"/>
    <circle cx="9" cy="7" r="4"/>
    <line x1="17" x2="22" y1="8" y2="13"/>
    <line x1="22" x2="17" y1="8" y2="13"/>
  </symbol>

  <symbol xmlns="http://www.w3.org/2000/svg" viewBox="0 0 24 24" fill="none" stroke="currentColor" stroke-width="2" stroke-linecap="round" stroke-linejoin="round" id="chevron-down">
    <path d="m6 9 6 6 6-6"/>
  </symbol>

  <symbol xmlns="http://www.w3.org/2000/svg" viewBox="0 0 24 24" fill="none" stroke="currentColor" stroke-width="2" stroke-linecap="round" stroke-linejoin="round" id="close">
    <path d="M18 6 6 18"></path>
    <path d="m6 6 12 12"></path>
  </symbol>

  <symbol
    xmlns="http://www.w3.org/2000/svg"
    viewBox="0 0 24 24"
    fill="none"
    stroke="currentColor"
    stroke-width="2"
    stroke-linecap="round"
    stroke-linejoin="round"
    id="globe">
    <circle cx="12" cy="12" r="10"></circle>
    <path d="M12 2a14.5 14.5 0 0 0 0 20 14.5 14.5 0 0 0 0-20"></path>
    <path d="M2 12h20"></path>
  </symbol>
  
  <symbol xmlns="http://www.w3.org/2000/svg" viewBox="0 0 24 24" fill="none" stroke="currentColor" stroke-width="2" stroke-linecap="round" stroke-linejoin="round" id="id-card">
    <path d="M13.5 8h-3"/><path d="m15 2-1 2h3a2 2 0 0 1 2 2v14a2 2 0 0 1-2 2H7a2 2 0 0 1-2-2V6a2 2 0 0 1 2-2h3"/><path d="M16.899 22A5 5 0 0 0 7.1 22"/><path d="m9 2 3 6"/><circle cx="12" cy="15" r="3"/>
  </symbol>


</svg>